<svg width="37" height="37" viewBox="0 0 37 37" fill="none" xmlns="http://www.w3.org/2000/svg">
<g clip-path="url(#clip0_81_615)" filter="url(#filter0_d_81_615)">
<path d="M24.0378 15.205C23.9815 15.2895 23.9815 15.3741 23.9533 15.4868C23.9251 15.8532 24.2069 16.1914 24.5733 16.2195C24.9397 16.2477 25.2779 15.9659 25.3061 15.5995C25.3061 15.515 25.3061 15.4304 25.3343 15.2895C25.3343 15.1486 25.3343 15.064 25.3343 14.9795C25.3343 14.1622 25.1933 13.3731 24.9397 12.6121C24.6015 11.6257 24.0097 10.752 23.3051 10.0193C22.4314 9.1456 21.3604 8.52558 20.1486 8.18738C19.5849 8.04646 18.9649 7.96191 18.373 7.96191C18.1758 7.96191 17.9785 7.96191 17.753 7.9901C17.5557 8.01828 17.3585 8.04646 17.1612 8.07465C16.7948 8.13101 16.5411 8.49739 16.6257 8.83559C16.6821 9.20197 17.0484 9.45562 17.3866 9.37107C17.5557 9.34288 17.6967 9.3147 17.8658 9.3147C17.8939 9.3147 17.9221 9.3147 17.9503 9.3147C18.0912 9.3147 18.2321 9.28652 18.373 9.28652C19.9231 9.28652 21.3604 9.90654 22.375 10.9493C23.3896 11.9639 24.0097 13.3449 24.0378 14.8949V14.9513C24.0378 15.064 24.0378 15.1486 24.0378 15.205Z" fill="white"/>
<path d="M27.7581 15.825C27.7299 16.1914 28.0118 16.5296 28.3782 16.5577C28.7445 16.5859 29.0827 16.3041 29.1109 15.9377C29.1391 15.6277 29.1391 15.3177 29.1391 15.0077C29.1391 14.3876 29.0827 13.7958 28.9982 13.204C28.6318 10.9493 27.5327 8.92013 25.9826 7.37006C24.2071 5.59453 21.8397 4.43903 19.2187 4.24174C18.9368 4.21356 18.6268 4.21356 18.345 4.21356C18.035 4.21356 17.725 4.21356 17.4149 4.24174C17.1049 4.26993 16.7949 4.29811 16.4849 4.35448C16.1185 4.41084 15.8649 4.77722 15.9494 5.11542C16.0058 5.4818 16.3722 5.73545 16.7104 5.6509C16.9077 5.62271 17.0768 5.59453 17.274 5.56635C17.3586 5.56635 17.4431 5.53816 17.5277 5.53816C17.8095 5.50998 18.0913 5.50998 18.345 5.50998C19.3032 5.50998 20.2051 5.6509 21.0787 5.90454C22.6006 6.35547 23.9534 7.17278 25.0526 8.27192C25.9544 9.17378 26.6872 10.2729 27.1663 11.4566C27.589 12.5276 27.8427 13.7112 27.8427 14.9513C27.8427 15.0359 27.8427 15.1486 27.8427 15.2331C27.7863 15.4586 27.7581 15.6277 27.7581 15.825Z" fill="white"/>
<path d="M28.7163 4.66448C26.0389 1.98709 22.3752 0.352478 18.3168 0.352478C17.894 0.352478 17.4713 0.380661 17.0486 0.408844C16.6258 0.437027 16.2031 0.493393 15.7803 0.577942C15.4139 0.634308 15.1603 1.00069 15.2448 1.33888C15.3012 1.70526 15.6676 1.95891 16.0058 1.87436C16.2031 1.84618 16.3722 1.818 16.5694 1.78981C16.7667 1.76163 16.964 1.73345 17.1613 1.73345C17.5558 1.70526 17.9222 1.67708 18.3168 1.67708C21.9806 1.67708 25.3062 3.17078 27.7299 5.56634C30.1255 7.9619 31.6192 11.2875 31.6192 14.9795C31.6192 15.1768 31.6192 15.4022 31.6192 15.5995C31.6192 15.7686 31.591 15.9377 31.591 16.135C31.5628 16.5014 31.8447 16.8396 32.211 16.8677C32.5774 16.8959 32.9156 16.6141 32.9438 16.2477C32.972 15.825 33.0002 15.4022 33.0002 15.0077C33.0002 10.9775 31.3655 7.31369 28.7163 4.66448Z" fill="white"/>
<path d="M31.9572 21.7434L26.9688 19.066C25.306 18.1641 25.2497 18.756 23.5023 20.6161C23.0796 21.067 22.2905 22.2507 21.3604 22.0252C19.4158 21.5461 15.7802 18.6996 14.5965 17.4032C14.0328 16.7832 11.6091 13.824 11.5809 12.8657C11.5245 11.4002 14.7374 10.6675 13.6946 7.87733L11.4682 2.88894C9.38263 -1.90218 3.54874 5.76361 4.02785 9.34285C5.2679 18.1641 20.7404 32.4248 29.3644 27.7182C31.2808 26.6472 33.8737 22.8989 31.9572 21.7434Z" fill="white"/>
</g>
<defs>
<filter id="filter0_d_81_615" x="0" y="0" width="37" height="37" filterUnits="userSpaceOnUse" color-interpolation-filters="sRGB">
<feFlood flood-opacity="0" result="BackgroundImageFix"/>
<feColorMatrix in="SourceAlpha" type="matrix" values="0 0 0 0 0 0 0 0 0 0 0 0 0 0 0 0 0 0 127 0" result="hardAlpha"/>
<feOffset dy="4"/>
<feGaussianBlur stdDeviation="2"/>
<feComposite in2="hardAlpha" operator="out"/>
<feColorMatrix type="matrix" values="0 0 0 0 0 0 0 0 0 0 0 0 0 0 0 0 0 0 0.25 0"/>
<feBlend mode="normal" in2="BackgroundImageFix" result="effect1_dropShadow_81_615"/>
<feBlend mode="normal" in="SourceGraphic" in2="effect1_dropShadow_81_615" result="shape"/>
</filter>
<clipPath id="clip0_81_615">
<rect width="29" height="29" fill="white" transform="translate(4)"/>
</clipPath>
</defs>
</svg>
